<?xml version="1.0" encoding="utf-8"?>
<!-- Generator: Adobe Illustrator 26.1.0, SVG Export Plug-In . SVG Version: 6.00 Build 0)  -->
<svg version="1.1" id="Livello_1" xmlns="http://www.w3.org/2000/svg" xmlns:xlink="http://www.w3.org/1999/xlink" x="0px" y="0px"
	 viewBox="0 0 500 500" style="enable-background:new 0 0 500 500;" xml:space="preserve">
<style type="text/css">
	.st0{fill:#F2F2F2;}
	.st1{fill:#CCCCCC;}
</style>
<path class="st0" d="M500,250c0,78.9-36.6,149.3-93.7,195.1C363.5,479.5,309.2,500,250,500s-113.5-20.5-156.3-54.9
	C36.6,399.3,0,328.9,0,250C0,111.9,111.9,0,250,0S500,111.9,500,250z"/>
<path class="st1" d="M406.3,445.1C363.5,479.5,309.2,500,250,500s-113.5-20.5-156.3-54.9C110.6,374.5,174.2,322,250,322
	S389.4,374.5,406.3,445.1z"/>
<circle class="st1" cx="250" cy="194.4" r="96.4"/>
</svg>
